<svg xmlns="http://www.w3.org/2000/svg" viewBox="0 0 180 180" width="180" height="180">
  <defs>
    <linearGradient id="griffinGradientLarge" x1="0%" y1="0%" x2="100%" y2="100%">
      <stop offset="0%" style="stop-color:#2c3e50;stop-opacity:1" />
      <stop offset="30%" style="stop-color:#34495e;stop-opacity:1" />
      <stop offset="70%" style="stop-color:#2c3e50;stop-opacity:1" />
      <stop offset="100%" style="stop-color:#1a252f;stop-opacity:1" />
    </linearGradient>
    <radialGradient id="highlight" cx="50%" cy="30%" r="60%">
      <stop offset="0%" style="stop-color:#ffffff;stop-opacity:0.3" />
      <stop offset="100%" style="stop-color:#ffffff;stop-opacity:0" />
    </radialGradient>
  </defs>
  
  <!-- Background -->
  <rect width="180" height="180" fill="#f8f9fa" rx="20"/>
  
  <!-- Griffin main body -->
  <path d="M45 150 Q45 135 55 125 L75 115 Q90 105 105 115 L125 125 Q135 135 135 150 L120 160 Q90 165 75 160 Z" 
        fill="url(#griffinGradientLarge)" 
        stroke="#1a252f" 
        stroke-width="3"/>
  
  <!-- Griffin chest -->
  <path d="M55 115 Q70 95 90 95 Q110 95 125 115 Q115 125 90 125 Q70 125 55 115 Z" 
        fill="url(#griffinGradientLarge)" 
        stroke="#1a252f" 
        stroke-width="3"/>
  
  <!-- Griffin head (eagle) -->
  <path d="M75 95 Q85 75 95 95 Q105 85 115 95 Q110 105 95 100 Q85 105 75 95 Z" 
        fill="url(#griffinGradientLarge)" 
        stroke="#1a252f" 
        stroke-width="3"/>
  
  <!-- Beak -->
  <path d="M115 95 Q125 90 130 95 Q125 100 115 100 Z" 
        fill="#2c3e50" 
        stroke="#1a252f" 
        stroke-width="2"/>
  
  <!-- Eye -->
  <circle cx="105" cy="88" r="4" fill="#ffffff"/>
  <circle cx="106" cy="86" r="2.5" fill="#1a252f"/>
  <circle cx="107" cy="85" r="1" fill="#ffffff" opacity="0.8"/>
  
  <!-- Left wing (detailed) -->
  <path d="M95 95 Q75 55 45 45 Q25 35 15 55 Q25 65 45 75 Q70 85 95 95 Z" 
        fill="url(#griffinGradientLarge)" 
        stroke="#1a252f" 
        stroke-width="2.5" 
        opacity="0.95"/>
  
  <!-- Wing feathers (left) -->
  <path d="M85 85 Q65 50 40 45 M80 90 Q60 60 35 55 M75 95 Q55 70 30 65" 
        stroke="#1a252f" 
        stroke-width="1.5" 
        opacity="0.7"/>
  
  <!-- Right wing -->
  <path d="M95 100 Q115 60 145 50 Q165 40 175 60 Q165 70 145 80 Q120 90 95 100 Z" 
        fill="url(#griffinGradientLarge)" 
        stroke="#1a252f" 
        stroke-width="2.5" 
        opacity="0.95"/>
  
  <!-- Wing feathers (right) -->
  <path d="M105 90 Q125 55 150 50 M110 95 Q130 65 155 60 M115 100 Q135 75 160 70" 
        stroke="#1a252f" 
        stroke-width="1.5" 
        opacity="0.7"/>
  
  <!-- Front legs with claws -->
  <path d="M70 115 L60 140 L55 145 M75 115 L65 140 L60 145" 
        stroke="#2c3e50" 
        stroke-width="4" 
        stroke-linecap="round"/>
  
  <!-- Claws (front) -->
  <path d="M55 145 L50 148 M55 145 L53 150 M60 145 L55 148 M60 145 L58 150" 
        stroke="#1a252f" 
        stroke-width="2" 
        stroke-linecap="round"/>
  
  <!-- Back legs -->
  <path d="M105 125 L95 150 L90 155 M115 125 L105 150 L100 155" 
        stroke="#2c3e50" 
        stroke-width="4" 
        stroke-linecap="round"/>
  
  <!-- Claws (back) -->
  <path d="M90 155 L85 158 M90 155 L88 160 M100 155 L95 158 M100 155 L98 160" 
        stroke="#1a252f" 
        stroke-width="2" 
        stroke-linecap="round"/>
  
  <!-- Tail -->
  <path d="M135 150 Q145 140 155 150 Q145 160 135 155" 
        fill="none" 
        stroke="#2c3e50" 
        stroke-width="3" 
        stroke-linecap="round"/>
  
  <!-- Highlight overlay -->
  <path d="M75 95 Q85 75 95 95 Q105 85 115 95 Q110 105 95 100 Q85 105 75 95 Z" 
        fill="url(#highlight)"/>
  
</svg>