<svg xmlns="http://www.w3.org/2000/svg" viewBox="0 0 180 180" width="180" height="180">
  <defs>
    <linearGradient id="griffinGradientLarge" x1="0%" y1="0%" x2="100%" y2="100%">
      <stop offset="0%" style="stop-color:#2c3e50;stop-opacity:1" />
      <stop offset="30%" style="stop-color:#34495e;stop-opacity:1" />
      <stop offset="70%" style="stop-color:#2c3e50;stop-opacity:1" />
      <stop offset="100%" style="stop-color:#1a252f;stop-opacity:1" />
    </linearGradient>
    <radialGradient id="highlight" cx="50%" cy="30%" r="60%">
      <stop offset="0%" style="stop-color:#ffffff;stop-opacity:0.15" />
      <stop offset="100%" style="stop-color:#ffffff;stop-opacity:0" />
    </radialGradient>
  </defs>
  
  <!-- Background -->
  <rect width="180" height="180" fill="#f8f9fa" rx="20"/>
  
  <!-- Griffin main body (maximum detail, exact rampant stance) -->
  <path d="M65 90 Q55 85 55 110 Q55 130 65 145 Q75 155 85 145 Q95 130 95 110 Q95 85 85 90 Q75 80 65 90 Z" 
        fill="url(#griffinGradientLarge)" 
        stroke="#1a252f" 
        stroke-width="2.5"/>
  
  <!-- Detailed body muscle definition -->
  <path d="M65 95 Q70 92 75 95 M62 100 Q67 97 72 100 M65 105 Q70 102 75 105 M68 110 Q73 107 78 110 M65 115 Q70 112 75 115 M62 120 Q67 117 72 120 M65 125 Q70 122 75 125 M68 130 Q73 127 78 130 M65 135 Q70 132 75 135 M62 140 Q67 137 72 140" 
        stroke="#1a252f" 
        stroke-width="1.5" 
        opacity="0.6"/>
  
  <!-- Body shading lines -->
  <path d="M60 100 Q65 95 70 100 M58 110 Q63 105 68 110 M60 120 Q65 115 70 120 M58 130 Q63 125 68 130" 
        stroke="#1a252f" 
        stroke-width="1" 
        opacity="0.4"/>
  
  <!-- Griffin chest with detailed musculature -->
  <path d="M60 70 Q70 60 75 60 Q80 60 90 70 Q90 80 80 90 Q70 90 60 80 Q60 70 60 70 Z" 
        fill="url(#griffinGradientLarge)" 
        stroke="#1a252f" 
        stroke-width="2.5"/>
  
  <!-- Chest muscle definition -->
  <path d="M65 75 Q70 72 75 75 M68 80 Q73 77 78 80 M65 85 Q70 82 75 85 M62 72 Q67 70 72 72" 
        stroke="#1a252f" 
        stroke-width="1.5" 
        opacity="0.5"/>
  
  <!-- Griffin eagle head with maximum detail -->
  <path d="M70 60 Q75 45 80 60 Q85 50 90 60 Q95 65 90 70 Q80 65 70 60 Z" 
        fill="url(#griffinGradientLarge)" 
        stroke="#1a252f" 
        stroke-width="2.5"/>
  
  <!-- Head shading and definition -->
  <path d="M72 58 Q77 50 82 58 M75 62 Q80 55 85 62" 
        stroke="#1a252f" 
        stroke-width="1" 
        opacity="0.4"/>
  
  <!-- Detailed curved beak exactly matching original -->
  <path d="M90 60 Q100 55 105 65 Q100 70 90 65" 
        fill="none" 
        stroke="#1a252f" 
        stroke-width="3.5" 
        stroke-linecap="round"/>
  
  <!-- Beak detail and nostril -->
  <ellipse cx="98" cy="62" rx="1.5" ry="1" fill="#1a252f" opacity="0.7"/>
  
  <!-- Eye with maximum detail -->
  <circle cx="82" cy="55" r="3.5" fill="#ffffff"/>
  <circle cx="83" cy="53" r="2.2" fill="#1a252f"/>
  <circle cx="84" cy="52" r="0.8" fill="#ffffff" opacity="0.9"/>
  <circle cx="84.5" cy="51.5" r="0.3" fill="#ffffff"/>
  
  <!-- Head crest and mane feathers (detailed) -->
  <path d="M72 50 Q65 40 60 45 Q65 50 70 55 M75 48 Q68 38 63 43 Q68 48 73 53 M78 46 Q71 36 66 41 Q71 46 76 51 M81 44 Q74 34 69 39 Q74 44 79 49" 
        stroke="#1a252f" 
        stroke-width="2" 
        stroke-linecap="round"/>
  
  <!-- Additional mane detail -->
  <path d="M74 52 Q70 45 68 48 Q70 52 74 55 M77 50 Q73 43 71 46 Q73 50 77 53" 
        stroke="#1a252f" 
        stroke-width="1.5" 
        stroke-linecap="round" 
        opacity="0.7"/>
  
  <!-- Detailed left wing with maximum feather detail -->
  <path d="M70 65 Q45 40 25 30 Q15 25 10 40 Q20 50 35 60 Q55 75 70 65 Z" 
        fill="url(#griffinGradientLarge)" 
        stroke="#1a252f" 
        stroke-width="2"/>
  
  <!-- Left wing primary feathers (outer layer) -->
  <path d="M65 60 Q50 40 30 35 M62 65 Q47 45 27 40 M59 70 Q44 50 24 45 M56 75 Q41 55 21 50 M53 80 Q38 60 18 55" 
        stroke="#1a252f" 
        stroke-width="2.5" 
        opacity="0.8"/>
  
  <!-- Left wing secondary feathers (middle layer) -->
  <path d="M63 62 Q51 45 35 42 M60 67 Q48 50 32 47 M57 72 Q45 55 29 52 M54 77 Q42 60 26 57" 
        stroke="#1a252f" 
        stroke-width="2" 
        opacity="0.6"/>
  
  <!-- Left wing tertiary feathers (inner layer) -->
  <path d="M61 64 Q53 50 42 47 M58 69 Q50 55 39 52 M55 74 Q47 60 36 57" 
        stroke="#1a252f" 
        stroke-width="1.5" 
        opacity="0.4"/>
  
  <!-- Left wing feather tips and detail -->
  <path d="M64 61 Q58 50 50 48 M61 66 Q55 55 47 53 M58 71 Q52 60 44 58 M55 76 Q49 65 41 63" 
        stroke="#1a252f" 
        stroke-width="1" 
        opacity="0.3"/>
  
  <!-- Detailed right wing with maximum feather detail -->
  <path d="M80 65 Q105 40 125 30 Q135 25 140 40 Q130 50 115 60 Q95 75 80 65 Z" 
        fill="url(#griffinGradientLarge)" 
        stroke="#1a252f" 
        stroke-width="2"/>
  
  <!-- Right wing primary feathers (outer layer) -->
  <path d="M85 60 Q100 40 120 35 M88 65 Q103 45 123 40 M91 70 Q106 50 126 45 M94 75 Q109 55 129 50 M97 80 Q112 60 132 55" 
        stroke="#1a252f" 
        stroke-width="2.5" 
        opacity="0.8"/>
  
  <!-- Right wing secondary feathers (middle layer) -->
  <path d="M87 62 Q99 45 115 42 M90 67 Q102 50 118 47 M93 72 Q105 55 121 52 M96 77 Q108 60 124 57" 
        stroke="#1a252f" 
        stroke-width="2" 
        opacity="0.6"/>
  
  <!-- Right wing tertiary feathers (inner layer) -->
  <path d="M89 64 Q97 50 108 47 M92 69 Q100 55 111 52 M95 74 Q103 60 114 57" 
        stroke="#1a252f" 
        stroke-width="1.5" 
        opacity="0.4"/>
  
  <!-- Right wing feather tips and detail -->
  <path d="M86 61 Q92 50 100 48 M89 66 Q95 55 103 53 M92 71 Q98 60 106 58 M95 76 Q101 65 109 63" 
        stroke="#1a252f" 
        stroke-width="1" 
        opacity="0.3"/>
  
  <!-- Front legs with detailed eagle talons -->
  <path d="M65 90 Q60 100 55 120 Q50 130 45 140" 
        stroke="#1a252f" 
        stroke-width="4" 
        stroke-linecap="round" 
        fill="none"/>
  
  <path d="M75 90 Q70 100 65 120 Q60 130 55 140" 
        stroke="#1a252f" 
        stroke-width="4" 
        stroke-linecap="round" 
        fill="none"/>
  
  <!-- Detailed front talons with individual curved claws -->
  <path d="M45 140 Q40 145 35 140 M45 140 Q40 150 45 150 M45 140 Q42 155 47 155 M45 140 Q43 160 48 160 M55 140 Q50 145 45 140 M55 140 Q50 150 55 150 M55 140 Q52 155 57 155 M55 140 Q53 160 58 160" 
        stroke="#1a252f" 
        stroke-width="2.5" 
        stroke-linecap="round"/>
  
  <!-- Talon detail lines -->
  <path d="M42 142 Q40 145 38 148 M52 142 Q50 145 48 148" 
        stroke="#1a252f" 
        stroke-width="1.5" 
        opacity="0.6"/>
  
  <!-- Back legs with lion-like paws -->
  <path d="M85 110 Q80 120 75 130 Q70 135 65 145" 
        stroke="#1a252f" 
        stroke-width="4" 
        stroke-linecap="round" 
        fill="none"/>
  
  <path d="M95 110 Q90 120 85 130 Q80 135 75 145" 
        stroke="#1a252f" 
        stroke-width="4" 
        stroke-linecap="round" 
        fill="none"/>
  
  <!-- Back paw details -->
  <path d="M65 145 Q60 150 55 145 M65 145 Q60 155 65 155 M75 145 Q70 150 65 145 M75 145 Q70 155 75 155" 
        stroke="#1a252f" 
        stroke-width="2.5" 
        stroke-linecap="round"/>
  
  <!-- Flowing curved tail with maximum detail -->
  <path d="M95 120 Q105 110 115 120 Q125 130 120 140 Q115 150 105 145 Q100 135 95 125" 
        fill="none" 
        stroke="#1a252f" 
        stroke-width="4" 
        stroke-linecap="round"/>
  
  <!-- Tail continuation and S-curve -->
  <path d="M115 140 Q125 145 130 150 Q135 155 130 160 Q125 165 120 160 Q115 155 110 150" 
        fill="none" 
        stroke="#1a252f" 
        stroke-width="3.5" 
        stroke-linecap="round"/>
  
  <!-- Final tail curve -->
  <path d="M130 155 Q135 160 140 155 Q145 150 140 145 Q135 140 130 145" 
        fill="none" 
        stroke="#1a252f" 
        stroke-width="3" 
        stroke-linecap="round"/>
  
  <!-- Detailed tail fur texture -->
  <path d="M105 130 Q110 125 115 130 M108 135 Q113 130 118 135 M115 145 Q120 140 125 145 M118 150 Q123 145 128 150 M125 160 Q130 155 135 160" 
        stroke="#1a252f" 
        stroke-width="1.5" 
        opacity="0.5"/>
  
  <!-- Additional tail texture lines -->
  <path d="M107 132 Q111 128 115 132 M110 137 Q114 133 118 137 M117 147 Q121 143 125 147 M120 152 Q124 148 128 152" 
        stroke="#1a252f" 
        stroke-width="1" 
        opacity="0.3"/>
  
  <!-- Tail tuft detail -->
  <path d="M140 155 Q145 160 150 155 Q155 150 150 145 Q145 140 140 145" 
        fill="none" 
        stroke="#1a252f" 
        stroke-width="2.5" 
        stroke-linecap="round"/>
  
  <!-- Additional body fur details -->
  <path d="M70 95 Q75 92 80 95 M68 100 Q73 97 78 100 M70 105 Q75 102 80 105 M68 110 Q73 107 78 110 M70 115 Q75 112 80 115" 
        stroke="#1a252f" 
        stroke-width="1.2" 
        opacity="0.4"/>
  
  <!-- Neck fur detail -->
  <path d="M72 72 Q77 70 82 72 M70 77 Q75 75 80 77" 
        stroke="#1a252f" 
        stroke-width="1" 
        opacity="0.4"/>
  
  <!-- Highlight overlay on head -->
  <path d="M70 60 Q75 45 80 60 Q85 50 90 60 Q95 65 90 70 Q80 65 70 60 Z" 
        fill="url(#highlight)"/>
  
</svg>