<svg xmlns="http://www.w3.org/2000/svg" viewBox="0 0 32 32" width="32" height="32">
  <defs>
    <linearGradient id="griffinGradient" x1="0%" y1="0%" x2="100%" y2="100%">
      <stop offset="0%" style="stop-color:#2c3e50;stop-opacity:1" />
      <stop offset="50%" style="stop-color:#34495e;stop-opacity:1" />
      <stop offset="100%" style="stop-color:#2c3e50;stop-opacity:1" />
    </linearGradient>
  </defs>
  
  <!-- Background -->
  <rect width="32" height="32" fill="#f8f9fa" rx="4"/>
  
  <!-- Griffin body (lion-like) -->
  <path d="M8 26 Q8 24 10 22 L14 20 Q16 18 18 20 L22 22 Q24 24 24 26 L20 28 Q16 29 12 28 Z" 
        fill="url(#griffinGradient)" 
        stroke="#1a252f" 
        stroke-width="0.8"/>
  
  <!-- Griffin chest/front -->
  <path d="M10 18 Q12 16 16 16 Q20 16 22 18 Q20 20 16 20 Q12 20 10 18 Z" 
        fill="url(#griffinGradient)" 
        stroke="#1a252f" 
        stroke-width="0.8"/>
  
  <!-- Griffin head (eagle-like) -->
  <path d="M14 16 Q16 12 18 16 Q20 14 22 16 Q21 18 18 17 Q16 18 14 16 Z" 
        fill="url(#griffinGradient)" 
        stroke="#1a252f" 
        stroke-width="0.8"/>
  
  <!-- Beak -->
  <path d="M22 16 Q24 15 25 16 Q24 17 22 17 Z" 
        fill="#2c3e50" 
        stroke="#1a252f" 
        stroke-width="0.5"/>
  
  <!-- Eye -->
  <circle cx="20" cy="15" r="1" fill="#ffffff"/>
  <circle cx="20.3" cy="14.7" r="0.5" fill="#1a252f"/>
  
  <!-- Wings (simplified) -->
  <path d="M18 16 Q16 10 12 8 Q8 6 6 10 Q8 12 12 14 Q16 16 18 16 Z" 
        fill="url(#griffinGradient)" 
        stroke="#1a252f" 
        stroke-width="0.6" 
        opacity="0.9"/>
  
  <path d="M18 17 Q20 11 24 9 Q28 7 30 11 Q28 13 24 15 Q20 17 18 17 Z" 
        fill="url(#griffinGradient)" 
        stroke="#1a252f" 
        stroke-width="0.6" 
        opacity="0.9"/>
  
  <!-- Front legs/claws -->
  <path d="M12 20 L10 24 M14 20 L12 24" 
        stroke="#2c3e50" 
        stroke-width="1.2" 
        stroke-linecap="round"/>
  
  <!-- Back legs -->
  <path d="M18 22 L16 26 M20 22 L18 26" 
        stroke="#2c3e50" 
        stroke-width="1.2" 
        stroke-linecap="round"/>
  
  <!-- Tail -->
  <path d="M24 26 Q26 24 28 26 Q26 28 24 27" 
        fill="none" 
        stroke="#2c3e50" 
        stroke-width="1" 
        stroke-linecap="round"/>
  
</svg>