<svg xmlns="http://www.w3.org/2000/svg" viewBox="0 0 32 32" width="32" height="32">
  <defs>
    <linearGradient id="griffinGradient" x1="0%" y1="0%" x2="100%" y2="100%">
      <stop offset="0%" style="stop-color:#2c3e50;stop-opacity:1" />
      <stop offset="50%" style="stop-color:#34495e;stop-opacity:1" />
      <stop offset="100%" style="stop-color:#2c3e50;stop-opacity:1" />
    </linearGradient>
  </defs>
  
  <!-- Background -->
  <rect width="32" height="32" fill="#f8f9fa" rx="4"/>
  
  <!-- Griffin main body (detailed, upright rampant stance) -->
  <path d="M13 16 Q11 14 11 20 Q11 24 13 27 Q15 29 17 27 Q19 24 19 20 Q19 14 17 16 Q15 13 13 16 Z" 
        fill="url(#griffinGradient)" 
        stroke="#1a252f" 
        stroke-width="0.6"/>
  
  <!-- Body fur texture lines -->
  <path d="M13 18 Q14 17 15 18 M12 20 Q13 19 14 20 M13 22 Q14 21 15 22 M14 24 Q15 23 16 24" 
        stroke="#1a252f" 
        stroke-width="0.3" 
        opacity="0.6"/>
  
  <!-- Griffin chest with muscle definition -->
  <path d="M12 12 Q14 10 15 10 Q16 10 18 12 Q18 14 16 16 Q14 16 12 14 Q12 12 12 12 Z" 
        fill="url(#griffinGradient)" 
        stroke="#1a252f" 
        stroke-width="0.6"/>
  
  <!-- Chest fur detail -->
  <path d="M13 13 Q14 12 15 13 M14 14 Q15 13 16 14" 
        stroke="#1a252f" 
        stroke-width="0.3" 
        opacity="0.5"/>
  
  <!-- Griffin eagle head with detailed features -->
  <path d="M14 10 Q15 6 16 10 Q17 8 18 10 Q19 11 18 12 Q16 11 14 10 Z" 
        fill="url(#griffinGradient)" 
        stroke="#1a252f" 
        stroke-width="0.6"/>
  
  <!-- Detailed curved beak with nostril -->
  <path d="M18 10 Q20 9 21 11 Q20 12 18 11" 
        fill="none" 
        stroke="#1a252f" 
        stroke-width="0.8" 
        stroke-linecap="round"/>
  
  <!-- Beak nostril -->
  <circle cx="19.5" cy="10.5" r="0.3" fill="#1a252f" opacity="0.7"/>
  
  <!-- Eye with detailed pupil and highlight -->
  <circle cx="16.5" cy="9" r="0.7" fill="#ffffff"/>
  <circle cx="16.7" cy="8.8" r="0.4" fill="#1a252f"/>
  <circle cx="16.8" cy="8.6" r="0.15" fill="#ffffff" opacity="0.9"/>
  
  <!-- Head crest/mane feathers -->
  <path d="M14.5 8 Q13 5 12 7 Q13 8 14 9 M15.5 7 Q14 4 13 6 Q14 7 15 8" 
        stroke="#1a252f" 
        stroke-width="0.4" 
        stroke-linecap="round"/>
  
  <!-- Detailed left wing with individual feathers -->
  <path d="M14 11 Q9 6 5 4 Q3 3 2 6 Q4 8 7 10 Q11 12 14 11 Z" 
        fill="url(#griffinGradient)" 
        stroke="#1a252f" 
        stroke-width="0.5"/>
  
  <!-- Left wing primary feathers -->
  <path d="M13 10 Q10 7 7 6 M12 11 Q9 8 6 7 M11 12 Q8 9 5 8 M10 13 Q7 10 4 9" 
        stroke="#1a252f" 
        stroke-width="0.4" 
        opacity="0.8"/>
  
  <!-- Left wing secondary feathers -->
  <path d="M12.5 10.5 Q10.5 8 8 7.5 M11.5 11.5 Q9.5 9 7 8.5 M10.5 12.5 Q8.5 10 6 9.5" 
        stroke="#1a252f" 
        stroke-width="0.3" 
        opacity="0.6"/>
  
  <!-- Detailed right wing with individual feathers -->
  <path d="M16 11 Q21 6 25 4 Q27 3 28 6 Q26 8 23 10 Q19 12 16 11 Z" 
        fill="url(#griffinGradient)" 
        stroke="#1a252f" 
        stroke-width="0.5"/>
  
  <!-- Right wing primary feathers -->
  <path d="M17 10 Q20 7 23 6 M18 11 Q21 8 24 7 M19 12 Q22 9 25 8 M20 13 Q23 10 26 9" 
        stroke="#1a252f" 
        stroke-width="0.4" 
        opacity="0.8"/>
  
  <!-- Right wing secondary feathers -->
  <path d="M17.5 10.5 Q19.5 8 22 7.5 M18.5 11.5 Q20.5 9 23 8.5 M19.5 12.5 Q21.5 10 24 9.5" 
        stroke="#1a252f" 
        stroke-width="0.3" 
        opacity="0.6"/>
  
  <!-- Front legs with detailed eagle talons -->
  <path d="M13 16 Q12 18 11 22 Q10 24 9 26" 
        stroke="#1a252f" 
        stroke-width="1" 
        stroke-linecap="round" 
        fill="none"/>
  
  <path d="M15 16 Q14 18 13 22 Q12 24 11 26" 
        stroke="#1a252f" 
        stroke-width="1" 
        stroke-linecap="round" 
        fill="none"/>
  
  <!-- Detailed front talons with individual claws -->
  <path d="M9 26 Q8 27 7 26 M9 26 Q8 28 9 28 M9 26 Q8.5 29 9.5 29 M11 26 Q10 27 9 26 M11 26 Q10 28 11 28 M11 26 Q10.5 29 11.5 29" 
        stroke="#1a252f" 
        stroke-width="0.7" 
        stroke-linecap="round"/>
  
  <!-- Back legs with lion-like paws -->
  <path d="M17 20 Q16 22 15 24 Q14 25 13 27" 
        stroke="#1a252f" 
        stroke-width="1" 
        stroke-linecap="round" 
        fill="none"/>
  
  <path d="M19 20 Q18 22 17 24 Q16 25 15 27" 
        stroke="#1a252f" 
        stroke-width="1" 
        stroke-linecap="round" 
        fill="none"/>
  
  <!-- Back paw details -->
  <path d="M13 27 Q12 28 11 27 M13 27 Q12 29 13 29 M15 27 Q14 28 13 27 M15 27 Q14 29 15 29" 
        stroke="#1a252f" 
        stroke-width="0.7" 
        stroke-linecap="round"/>
  
  <!-- Flowing curved tail with detailed texture -->
  <path d="M19 22 Q21 20 23 22 Q25 24 24 26 Q23 28 21 27 Q20 25 19 23" 
        fill="none" 
        stroke="#1a252f" 
        stroke-width="1" 
        stroke-linecap="round"/>
  
  <!-- Tail continuation with curve -->
  <path d="M23 26 Q25 27 26 28 Q27 29 26 30 Q25 31 24 30 Q23 29 22 28" 
        fill="none" 
        stroke="#1a252f" 
        stroke-width="0.8" 
        stroke-linecap="round"/>
  
  <!-- Tail fur texture -->
  <path d="M21 24 Q22 23 23 24 M22 26 Q23 25 24 26 M23 28 Q24 27 25 28" 
        stroke="#1a252f" 
        stroke-width="0.3" 
        opacity="0.5"/>
  
  <!-- Tail tuft detail -->
  <path d="M26 29 Q27 30 28 29 Q29 28 28 27 Q27 26 26 27" 
        fill="none" 
        stroke="#1a252f" 
        stroke-width="0.6" 
        stroke-linecap="round"/>
  
</svg>