<svg xmlns="http://www.w3.org/2000/svg" viewBox="0 0 16 16" width="16" height="16">
  <defs>
    <linearGradient id="griffinGradient16" x1="0%" y1="0%" x2="100%" y2="100%">
      <stop offset="0%" style="stop-color:#2c3e50;stop-opacity:1" />
      <stop offset="100%" style="stop-color:#34495e;stop-opacity:1" />
    </linearGradient>
  </defs>
  
  <!-- Background -->
  <rect width="16" height="16" fill="#f8f9fa" rx="2"/>
  
  <!-- Griffin body (simplified) -->
  <path d="M4 13 Q4 12 5 11 L7 10 Q8 9 9 10 L11 11 Q12 12 12 13 L10 14 Q8 14.5 6 14 Z" 
        fill="url(#griffinGradient16)" 
        stroke="#1a252f" 
        stroke-width="0.5"/>
  
  <!-- Griffin head -->
  <path d="M7 9 Q8 7 9 9 Q10 8 11 9 Q10.5 10 9 9.5 Q8 10 7 9 Z" 
        fill="url(#griffinGradient16)" 
        stroke="#1a252f" 
        stroke-width="0.5"/>
  
  <!-- Beak -->
  <path d="M11 9 Q12 8.5 12.5 9 Q12 9.5 11 9.5 Z" 
        fill="#2c3e50"/>
  
  <!-- Eye -->
  <circle cx="10" cy="8.5" r="0.5" fill="#ffffff"/>
  <circle cx="10.2" cy="8.3" r="0.3" fill="#1a252f"/>
  
  <!-- Wing (simplified) -->
  <path d="M9 9 Q7 5 4 4 Q2 3 1 5 Q3 6 6 7 Q8 8 9 9 Z" 
        fill="url(#griffinGradient16)" 
        stroke="#1a252f" 
        stroke-width="0.4" 
        opacity="0.8"/>
  
  <!-- Legs (very simple) -->
  <path d="M6 10 L5 12 M8 11 L7 13" 
        stroke="#2c3e50" 
        stroke-width="0.8" 
        stroke-linecap="round"/>
  
</svg>