<svg xmlns="http://www.w3.org/2000/svg" viewBox="0 0 32 32" width="32" height="32">
  <defs>
    <linearGradient id="griffinGradient" x1="0%" y1="0%" x2="100%" y2="100%">
      <stop offset="0%" style="stop-color:#2c3e50;stop-opacity:1" />
      <stop offset="50%" style="stop-color:#34495e;stop-opacity:1" />
      <stop offset="100%" style="stop-color:#2c3e50;stop-opacity:1" />
    </linearGradient>
  </defs>
  
  <!-- Background -->
  <rect width="32" height="32" fill="#f8f9fa" rx="4"/>
  
  <!-- Griffin main body (lion-like, standing upright) -->
  <path d="M14 18 Q12 16 12 22 Q12 26 14 28 Q16 30 18 28 Q20 26 20 22 Q20 16 18 18 Q16 16 14 18 Z" 
        fill="url(#griffinGradient)" 
        stroke="#1a252f" 
        stroke-width="0.8"/>
  
  <!-- Griffin chest/torso -->
  <path d="M13 14 Q15 12 16 12 Q17 12 19 14 Q19 16 17 18 Q15 18 13 16 Q13 14 13 14 Z" 
        fill="url(#griffinGradient)" 
        stroke="#1a252f" 
        stroke-width="0.8"/>
  
  <!-- Griffin head (eagle-like with curved beak) -->
  <path d="M15 12 Q16 8 17 12 Q18 10 19 12 Q20 13 19 14 Q17 13 15 12 Z" 
        fill="url(#griffinGradient)" 
        stroke="#1a252f" 
        stroke-width="0.8"/>
  
  <!-- Curved beak -->
  <path d="M19 12 Q21 11 22 13 Q21 14 19 13" 
        fill="none" 
        stroke="#1a252f" 
        stroke-width="1" 
        stroke-linecap="round"/>
  
  <!-- Eye -->
  <circle cx="17.5" cy="11" r="0.8" fill="#ffffff"/>
  <circle cx="17.7" cy="10.8" r="0.5" fill="#1a252f"/>
  
  <!-- Detailed wing feathers (left wing) -->
  <path d="M15 13 Q10 8 6 6 Q4 5 3 8 Q5 10 8 12 Q12 14 15 13 Z" 
        fill="url(#griffinGradient)" 
        stroke="#1a252f" 
        stroke-width="0.6"/>
  
  <!-- Wing feather details (left) -->
  <path d="M14 12 Q11 9 8 8 M13 13 Q10 10 7 9 M12 14 Q9 11 6 10" 
        stroke="#1a252f" 
        stroke-width="0.4" 
        opacity="0.8"/>
  
  <!-- Detailed wing feathers (right wing) -->
  <path d="M17 13 Q22 8 26 6 Q28 5 29 8 Q27 10 24 12 Q20 14 17 13 Z" 
        fill="url(#griffinGradient)" 
        stroke="#1a252f" 
        stroke-width="0.6"/>
  
  <!-- Wing feather details (right) -->
  <path d="M18 12 Q21 9 24 8 M19 13 Q22 10 25 9 M20 14 Q23 11 26 10" 
        stroke="#1a252f" 
        stroke-width="0.4" 
        opacity="0.8"/>
  
  <!-- Front legs with detailed claws -->
  <path d="M14 18 Q13 20 12 24 Q11 26 10 28" 
        stroke="#1a252f" 
        stroke-width="1.2" 
        stroke-linecap="round" 
        fill="none"/>
  
  <path d="M16 18 Q15 20 14 24 Q13 26 12 28" 
        stroke="#1a252f" 
        stroke-width="1.2" 
        stroke-linecap="round" 
        fill="none"/>
  
  <!-- Detailed claws -->
  <path d="M10 28 Q9 29 8 28 M10 28 Q9 30 10 30 M12 28 Q11 29 10 28 M12 28 Q11 30 12 30" 
        stroke="#1a252f" 
        stroke-width="0.8" 
        stroke-linecap="round"/>
  
  <!-- Back legs -->
  <path d="M18 22 Q17 24 16 26 Q15 27 14 29" 
        stroke="#1a252f" 
        stroke-width="1.2" 
        stroke-linecap="round" 
        fill="none"/>
  
  <path d="M20 22 Q19 24 18 26 Q17 27 16 29" 
        stroke="#1a252f" 
        stroke-width="1.2" 
        stroke-linecap="round" 
        fill="none"/>
  
  <!-- Curved flowing tail -->
  <path d="M20 24 Q22 22 24 24 Q26 26 25 28 Q24 30 22 29 Q21 27 20 25" 
        fill="none" 
        stroke="#1a252f" 
        stroke-width="1.2" 
        stroke-linecap="round"/>
  
  <!-- Tail tuft -->
  <path d="M24 28 Q25 30 26 29 Q27 28 25 27" 
        fill="none" 
        stroke="#1a252f" 
        stroke-width="0.8" 
        stroke-linecap="round"/>
  
</svg>