<svg xmlns="http://www.w3.org/2000/svg" viewBox="0 0 16 16" width="16" height="16">
  <defs>
    <linearGradient id="knightGradient16" x1="0%" y1="0%" x2="100%" y2="100%">
      <stop offset="0%" style="stop-color:#2c3e50;stop-opacity:1" />
      <stop offset="100%" style="stop-color:#34495e;stop-opacity:1" />
    </linearGradient>
  </defs>
  
  <!-- Base -->
  <ellipse cx="8" cy="14" rx="6" ry="1.5" fill="#1a252f" />
  
  <!-- Knight head simplified -->
  <path d="M4 13 L4 9 Q4 7 5 6 Q6 5 7 5.5 L7.5 5 Q8 4 9 4.5 Q10 4 11 5 L11.5 6 Q12 7 11.5 8 L12 9 Q12 10 11 11 L10 12 Q9 13 8 13 L6 13 Q5 13 4 13 Z" 
        fill="url(#knightGradient16)" 
        stroke="#1a252f" 
        stroke-width="0.5"/>
  
  <!-- Eye -->
  <circle cx="9.5" cy="6.5" r="0.8" fill="#ffffff" opacity="0.9"/>
  <circle cx="9.7" cy="6.3" r="0.4" fill="#1a252f"/>
  
  <!-- Ear -->
  <path d="M9 4.5 Q9.5 4 10 4.5 Q9.5 5 9 5 Z" 
        fill="#2c3e50"/>
  
</svg>