<svg xmlns="http://www.w3.org/2000/svg" viewBox="0 0 32 32" width="32" height="32">
  <!-- Background circle with gradient -->
  <defs>
    <radialGradient id="bg" cx="0.3" cy="0.3" r="0.8">
      <stop offset="0%" style="stop-color:#f0e6d2;stop-opacity:1" />
      <stop offset="100%" style="stop-color:#8b4513;stop-opacity:1" />
    </radialGradient>
    <linearGradient id="knight" x1="0%" y1="0%" x2="100%" y2="100%">
      <stop offset="0%" style="stop-color:#2c1810;stop-opacity:1" />
      <stop offset="100%" style="stop-color:#1a0f08;stop-opacity:1" />
    </linearGradient>
  </defs>
  
  <!-- Background -->
  <circle cx="16" cy="16" r="14" fill="url(#bg)" stroke="#2c1810" stroke-width="2"/>
  
  <!-- Knight piece - stylized and simplified for small size -->
  <path d="M8 24 L24 24 L23 22 L21 20 L20 18 L22 16 L23 14 L22 12 L20 11 L18 12 L16 11 L14 10 L12 11 L10 13 L9 15 L10 17 L12 18 L11 20 L9 22 Z" 
        fill="url(#knight)" 
        stroke="#f0e6d2" 
        stroke-width="0.5"/>
  
  <!-- Knight's eye -->
  <circle cx="17" cy="14" r="1" fill="#f0e6d2"/>
  
  <!-- Knight's mane detail -->
  <path d="M14 10 L16 11 L18 12 L20 11 L19 13 L17 14 L15 13 Z" 
        fill="none" 
        stroke="#f0e6d2" 
        stroke-width="0.5" 
        opacity="0.7"/>
</svg>