<svg xmlns="http://www.w3.org/2000/svg" viewBox="0 0 32 32" width="32" height="32">
  <defs>
    <linearGradient id="gold" x1="0%" y1="0%" x2="100%" y2="100%">
      <stop offset="0%" style="stop-color:#ffd700;stop-opacity:1" />
      <stop offset="50%" style="stop-color:#ffed4e;stop-opacity:1" />
      <stop offset="100%" style="stop-color:#daa520;stop-opacity:1" />
    </linearGradient>
    <linearGradient id="green" x1="0%" y1="0%" x2="100%" y2="100%">
      <stop offset="0%" style="stop-color:#228b22;stop-opacity:1" />
      <stop offset="100%" style="stop-color:#006400;stop-opacity:1" />
    </linearGradient>
  </defs>
  
  <!-- Shield shape -->
  <path d="M16 2 L28 6 L28 18 C28 22 24 28 16 30 C8 28 4 22 4 18 L4 6 Z" 
        fill="#2c3e50" stroke="#1a252f" stroke-width="1"/>
  
  <!-- Green and white stripes -->
  <defs>
    <clipPath id="shield">
      <path d="M16 2.5 L27.5 6.2 L27.5 18 C27.5 21.8 23.8 27.5 16 29.5 C8.2 27.5 4.5 21.8 4.5 18 L4.5 6.2 Z"/>
    </clipPath>
  </defs>
  
  <g clip-path="url(#shield)">
    <!-- White stripes -->
    <rect x="4" y="6" width="24" height="3" fill="#ffffff"/>
    <rect x="4" y="12" width="24" height="3" fill="#ffffff"/>
    <rect x="4" y="18" width="24" height="3" fill="#ffffff"/>
    <rect x="4" y="24" width="24" height="3" fill="#ffffff"/>
    
    <!-- Green stripes -->
    <rect x="4" y="9" width="24" height="3" fill="url(#green)"/>
    <rect x="4" y="15" width="24" height="3" fill="url(#green)"/>
    <rect x="4" y="21" width="24" height="3" fill="url(#green)"/>
    <rect x="4" y="27" width="24" height="3" fill="url(#green)"/>
    
    <!-- Griffin/Lion rampant (simplified for small size) -->
    <g fill="url(#gold)" stroke="#b8860b" stroke-width="0.3">
      <!-- Body -->
      <ellipse cx="16" cy="20" rx="3.5" ry="6"/>
      <!-- Head -->
      <circle cx="16" cy="12" r="2.5"/>
      <!-- Wings -->
      <path d="M19 12 Q22 10 23 14 Q22 16 19 15 Z"/>
      <path d="M19 15 Q21 17 20 20 Q18 19 19 17 Z"/>
      <!-- Front paws -->
      <ellipse cx="14" cy="16" rx="1" ry="2"/>
      <ellipse cx="18" cy="16" rx="1" ry="2"/>
      <!-- Rear paws -->
      <ellipse cx="14" cy="24" rx="1" ry="2"/>
      <ellipse cx="18" cy="24" rx="1" ry="2"/>
      <!-- Tail -->
      <path d="M12 22 Q8 20 9 24 Q11 25 12 22"/>
    </g>
  </g>
</svg>