<svg xmlns="http://www.w3.org/2000/svg" viewBox="0 0 16 16" width="16" height="16">
  <defs>
    <linearGradient id="gold16" x1="0%" y1="0%" x2="100%" y2="100%">
      <stop offset="0%" style="stop-color:#ffd700"/>
      <stop offset="100%" style="stop-color:#daa520"/>
    </linearGradient>
  </defs>
  
  <path d="M8 1 L14 3 L14 9 C14 11 12 14 8 15 C4 14 2 11 2 9 L2 3 Z" fill="#2c3e50"/>
  
  <defs>
    <clipPath id="shield16">
      <path d="M8 1.2 L13.8 3 L13.8 9 C13.8 10.8 12 13.8 8 14.8 C4 13.8 2.2 10.8 2.2 9 L2.2 3 Z"/>
    </clipPath>
  </defs>
  
  <g clip-path="url(#shield16)">
    <rect x="2" y="3" width="12" height="1.5" fill="#ffffff"/>
    <rect x="2" y="6" width="12" height="1.5" fill="#ffffff"/>
    <rect x="2" y="9" width="12" height="1.5" fill="#ffffff"/>
    <rect x="2" y="12" width="12" height="1.5" fill="#ffffff"/>
    
    <rect x="2" y="4.5" width="12" height="1.5" fill="#228b22"/>
    <rect x="2" y="7.5" width="12" height="1.5" fill="#228b22"/>
    <rect x="2" y="10.5" width="12" height="1.5" fill="#228b22"/>
    
    <g fill="url(#gold16)">
      <ellipse cx="8" cy="10" rx="1.5" ry="3"/>
      <circle cx="8" cy="6" r="1.2"/>
      <path d="M9.5 6 Q11 5 11.5 7 Q11 8 9.5 7.5 Z"/>
    </g>
  </g>
</svg>