<svg xmlns="http://www.w3.org/2000/svg" viewBox="0 0 40 40" width="40" height="40">
  <defs>
    <linearGradient id="griffinGradientHeader" x1="0%" y1="0%" x2="100%" y2="100%">
      <stop offset="0%" style="stop-color:#2c3e50;stop-opacity:1" />
      <stop offset="50%" style="stop-color:#34495e;stop-opacity:1" />
      <stop offset="100%" style="stop-color:#2c3e50;stop-opacity:1" />
    </linearGradient>
  </defs>
  
  <!-- Background circle -->
  <circle cx="20" cy="20" r="19" fill="#f8f9fa" stroke="#34495e" stroke-width="1"/>
  
  <!-- Griffin body -->
  <path d="M10 32 Q10 29 12 27 L16 25 Q20 23 24 25 L28 27 Q30 29 30 32 L26 34 Q20 35 16 34 Z" 
        fill="url(#griffinGradientHeader)" 
        stroke="#1a252f" 
        stroke-width="1"/>
  
  <!-- Griffin chest -->
  <path d="M12 25 Q16 21 20 21 Q24 21 28 25 Q26 27 20 27 Q16 27 12 25 Z" 
        fill="url(#griffinGradientHeader)" 
        stroke="#1a252f" 
        stroke-width="1"/>
  
  <!-- Griffin head -->
  <path d="M16 21 Q18 17 20 21 Q22 19 24 21 Q23 23 20 22 Q18 23 16 21 Z" 
        fill="url(#griffinGradientHeader)" 
        stroke="#1a252f" 
        stroke-width="1"/>
  
  <!-- Beak -->
  <path d="M24 21 Q26 20 27 21 Q26 22 24 22 Z" 
        fill="#2c3e50" 
        stroke="#1a252f" 
        stroke-width="0.5"/>
  
  <!-- Eye -->
  <circle cx="22" cy="20" r="1.2" fill="#ffffff"/>
  <circle cx="22.3" cy="19.7" r="0.7" fill="#1a252f"/>
  
  <!-- Left wing -->
  <path d="M20 21 Q16 13 10 11 Q6 9 4 13 Q6 15 10 17 Q16 19 20 21 Z" 
        fill="url(#griffinGradientHeader)" 
        stroke="#1a252f" 
        stroke-width="0.8" 
        opacity="0.9"/>
  
  <!-- Right wing -->
  <path d="M20 22 Q24 14 30 12 Q34 10 36 14 Q34 16 30 18 Q24 20 20 22 Z" 
        fill="url(#griffinGradientHeader)" 
        stroke="#1a252f" 
        stroke-width="0.8" 
        opacity="0.9"/>
  
  <!-- Wing details -->
  <path d="M18 19 Q14 14 10 13 M17 21 Q13 17 9 16" 
        stroke="#1a252f" 
        stroke-width="0.5" 
        opacity="0.6"/>
  
  <path d="M22 20 Q26 15 30 14 M23 22 Q27 18 31 17" 
        stroke="#1a252f" 
        stroke-width="0.5" 
        opacity="0.6"/>
  
  <!-- Front legs -->
  <path d="M16 25 L14 30 M18 25 L16 30" 
        stroke="#2c3e50" 
        stroke-width="1.5" 
        stroke-linecap="round"/>
  
  <!-- Back legs -->
  <path d="M22 27 L20 32 M24 27 L22 32" 
        stroke="#2c3e50" 
        stroke-width="1.5" 
        stroke-linecap="round"/>
  
  <!-- Tail -->
  <path d="M30 32 Q32 30 34 32 Q32 34 30 33" 
        fill="none" 
        stroke="#2c3e50" 
        stroke-width="1.2" 
        stroke-linecap="round"/>
  
</svg>