<?xml version="1.0" encoding="UTF-8"?>
<svg viewBox="0 0 400 400" xmlns="http://www.w3.org/2000/svg">
  <!-- Simplified Griffin heraldic creature as subtle watermark -->
  <g stroke="rgba(255,255,255,0.06)" stroke-width="1.5" fill="rgba(255,255,255,0.03)" opacity="0.4">
    <!-- Eagle head -->
    <path d="M200,80 Q220,70 240,80 Q250,90 245,100 Q240,110 230,105 Q220,100 215,95 Q210,90 200,80 Z"/>
    <!-- Eye -->
    <circle cx="225" cy="85" r="2" fill="rgba(255,255,255,0.08)"/>
    <!-- Beak -->
    <path d="M245,100 Q260,95 270,105 Q265,110 255,108 Q250,105 245,100"/>
    
    <!-- Wing (simplified) -->
    <path d="M220,120 Q260,100 300,115 Q340,130 350,160 Q345,190 320,210 Q295,220 275,215 Q255,210 245,195 Q235,180 230,165 Q225,150 220,135"/>
    
    <!-- Wing feathers (simplified) -->
    <path d="M270,135 Q300,125 325,140"/>
    <path d="M275,155 Q300,145 320,160"/>
    <path d="M280,175 Q300,165 315,180"/>
    
    <!-- Body -->
    <ellipse cx="210" cy="180" rx="25" ry="60"/>
    
    <!-- Front legs (eagle talons) -->
    <path d="M185,160 Q175,180 170,200 Q165,220 170,240"/>
    <path d="M170,240 L165,245 M170,240 L175,245 M170,240 L170,250"/>
    
    <path d="M235,160 Q245,180 250,200 Q255,220 250,240"/>
    <path d="M250,240 L245,245 M250,240 L255,245 M250,240 L250,250"/>
    
    <!-- Rear legs (lion paws) -->
    <path d="M195,220 Q185,240 180,260 Q175,280 180,300"/>
    <ellipse cx="180" cy="305" rx="8" ry="5"/>
    
    <path d="M225,220 Q235,240 240,260 Q245,280 240,300"/>
    <ellipse cx="240" cy="305" rx="8" ry="5"/>
    
    <!-- Tail -->
    <path d="M210,240 Q230,250 250,260 Q270,270 290,275 Q300,280 295,270 Q290,260 280,255"/>
    <path d="M280,255 Q285,250 290,245 M280,255 Q285,260 290,265"/>
  </g>
</svg>