<svg xmlns="http://www.w3.org/2000/svg" viewBox="0 0 40 40" width="40" height="40">
  <defs>
    <linearGradient id="griffinGradientHeader" x1="0%" y1="0%" x2="100%" y2="100%">
      <stop offset="0%" style="stop-color:#2c3e50;stop-opacity:1" />
      <stop offset="50%" style="stop-color:#34495e;stop-opacity:1" />
      <stop offset="100%" style="stop-color:#2c3e50;stop-opacity:1" />
    </linearGradient>
  </defs>
  
  <!-- Background circle -->
  <circle cx="20" cy="20" r="19" fill="#f8f9fa" stroke="#34495e" stroke-width="1"/>
  
  <!-- Griffin main body (upright stance) -->
  <path d="M15 22 Q13 20 13 26 Q13 30 15 32 Q17 34 19 32 Q21 30 21 26 Q21 20 19 22 Q17 20 15 22 Z" 
        fill="url(#griffinGradientHeader)" 
        stroke="#1a252f" 
        stroke-width="1"/>
  
  <!-- Griffin chest -->
  <path d="M14 18 Q16 16 17 16 Q18 16 20 18 Q20 20 18 22 Q16 22 14 20 Q14 18 14 18 Z" 
        fill="url(#griffinGradientHeader)" 
        stroke="#1a252f" 
        stroke-width="1"/>
  
  <!-- Griffin head (eagle-like) -->
  <path d="M16 16 Q17 12 18 16 Q19 14 20 16 Q21 17 20 18 Q18 17 16 16 Z" 
        fill="url(#griffinGradientHeader)" 
        stroke="#1a252f" 
        stroke-width="1"/>
  
  <!-- Curved beak -->
  <path d="M20 16 Q22 15 23 17 Q22 18 20 17" 
        fill="none" 
        stroke="#1a252f" 
        stroke-width="1.2" 
        stroke-linecap="round"/>
  
  <!-- Eye -->
  <circle cx="18" cy="15" r="1" fill="#ffffff"/>
  <circle cx="18.2" cy="14.8" r="0.6" fill="#1a252f"/>
  
  <!-- Left wing with feather detail -->
  <path d="M16 17 Q11 12 7 10 Q5 9 4 12 Q6 14 9 16 Q13 18 16 17 Z" 
        fill="url(#griffinGradientHeader)" 
        stroke="#1a252f" 
        stroke-width="0.8"/>
  
  <!-- Left wing feather lines -->
  <path d="M15 16 Q12 13 9 12 M14 17 Q11 14 8 13 M13 18 Q10 15 7 14" 
        stroke="#1a252f" 
        stroke-width="0.5" 
        opacity="0.8"/>
  
  <!-- Right wing with feather detail -->
  <path d="M18 17 Q23 12 27 10 Q29 9 30 12 Q28 14 25 16 Q21 18 18 17 Z" 
        fill="url(#griffinGradientHeader)" 
        stroke="#1a252f" 
        stroke-width="0.8"/>
  
  <!-- Right wing feather lines -->
  <path d="M19 16 Q22 13 25 12 M20 17 Q23 14 26 13 M21 18 Q24 15 27 14" 
        stroke="#1a252f" 
        stroke-width="0.5" 
        opacity="0.8"/>
  
  <!-- Front legs with claws -->
  <path d="M15 22 Q14 24 13 28 Q12 30 11 32" 
        stroke="#1a252f" 
        stroke-width="1.5" 
        stroke-linecap="round" 
        fill="none"/>
  
  <path d="M17 22 Q16 24 15 28 Q14 30 13 32" 
        stroke="#1a252f" 
        stroke-width="1.5" 
        stroke-linecap="round" 
        fill="none"/>
  
  <!-- Detailed claws -->
  <path d="M11 32 Q10 33 9 32 M11 32 Q10 34 11 34 M13 32 Q12 33 11 32 M13 32 Q12 34 13 34" 
        stroke="#1a252f" 
        stroke-width="1" 
        stroke-linecap="round"/>
  
  <!-- Back legs -->
  <path d="M19 26 Q18 28 17 30 Q16 31 15 33" 
        stroke="#1a252f" 
        stroke-width="1.5" 
        stroke-linecap="round" 
        fill="none"/>
  
  <path d="M21 26 Q20 28 19 30 Q18 31 17 33" 
        stroke="#1a252f" 
        stroke-width="1.5" 
        stroke-linecap="round" 
        fill="none"/>
  
  <!-- Flowing tail -->
  <path d="M21 28 Q23 26 25 28 Q27 30 26 32 Q25 34 23 33 Q22 31 21 29" 
        fill="none" 
        stroke="#1a252f" 
        stroke-width="1.5" 
        stroke-linecap="round"/>
  
  <!-- Tail tuft -->
  <path d="M25 32 Q26 34 27 33 Q28 32 26 31" 
        fill="none" 
        stroke="#1a252f" 
        stroke-width="1" 
        stroke-linecap="round"/>
  
</svg>