<svg xmlns="http://www.w3.org/2000/svg" viewBox="0 0 40 40" width="40" height="40">
  <defs>
    <linearGradient id="griffinGradientHeader" x1="0%" y1="0%" x2="100%" y2="100%">
      <stop offset="0%" style="stop-color:#2c3e50;stop-opacity:1" />
      <stop offset="50%" style="stop-color:#34495e;stop-opacity:1" />
      <stop offset="100%" style="stop-color:#2c3e50;stop-opacity:1" />
    </linearGradient>
  </defs>
  
  <!-- Background circle -->
  <circle cx="20" cy="20" r="19" fill="#f8f9fa" stroke="#34495e" stroke-width="1"/>
  
  <!-- Griffin main body (detailed rampant stance matching original) -->
  <path d="M14 20 Q12 18 12 24 Q12 28 14 31 Q16 33 18 31 Q20 28 20 24 Q20 18 18 20 Q16 17 14 20 Z" 
        fill="url(#griffinGradientHeader)" 
        stroke="#1a252f" 
        stroke-width="0.8"/>
  
  <!-- Body muscle definition and fur texture -->
  <path d="M14 22 Q15 21 16 22 M13 24 Q14 23 15 24 M14 26 Q15 25 16 26 M15 28 Q16 27 17 28 M13.5 30 Q14.5 29 15.5 30" 
        stroke="#1a252f" 
        stroke-width="0.4" 
        opacity="0.6"/>
  
  <!-- Griffin chest with detailed musculature -->
  <path d="M13 16 Q15 14 16 14 Q17 14 19 16 Q19 18 17 20 Q15 20 13 18 Q13 16 13 16 Z" 
        fill="url(#griffinGradientHeader)" 
        stroke="#1a252f" 
        stroke-width="0.8"/>
  
  <!-- Chest muscle lines -->
  <path d="M14 17 Q15 16 16 17 M15 18 Q16 17 17 18 M14.5 15.5 Q15.5 15 16.5 15.5" 
        stroke="#1a252f" 
        stroke-width="0.3" 
        opacity="0.5"/>
  
  <!-- Griffin eagle head with fine detail -->
  <path d="M15 14 Q16 10 17 14 Q18 12 19 14 Q20 15 19 16 Q17 15 15 14 Z" 
        fill="url(#griffinGradientHeader)" 
        stroke="#1a252f" 
        stroke-width="0.8"/>
  
  <!-- Detailed curved beak matching original -->
  <path d="M19 14 Q21 13 22 15 Q21 16 19 15" 
        fill="none" 
        stroke="#1a252f" 
        stroke-width="1" 
        stroke-linecap="round"/>
  
  <!-- Beak detail and nostril -->
  <circle cx="20.5" cy="14.5" r="0.3" fill="#1a252f" opacity="0.7"/>
  
  <!-- Eye with detailed iris and highlight -->
  <circle cx="17" cy="13" r="0.9" fill="#ffffff"/>
  <circle cx="17.2" cy="12.8" r="0.5" fill="#1a252f"/>
  <circle cx="17.3" cy="12.6" r="0.2" fill="#ffffff" opacity="0.9"/>
  
  <!-- Head crest and mane feathers -->
  <path d="M15.5 12 Q14 9 13 11 Q14 12 15 13 M16.5 11 Q15 8 14 10 Q15 11 16 12 M17.5 10 Q16 7 15 9 Q16 10 17 11" 
        stroke="#1a252f" 
        stroke-width="0.5" 
        stroke-linecap="round"/>
  
  <!-- Detailed left wing with intricate feather work -->
  <path d="M15 15 Q10 10 6 8 Q4 7 3 10 Q5 12 8 14 Q12 16 15 15 Z" 
        fill="url(#griffinGradientHeader)" 
        stroke="#1a252f" 
        stroke-width="0.6"/>
  
  <!-- Left wing primary feathers (outer layer) -->
  <path d="M14 14 Q11 11 8 10 M13 15 Q10 12 7 11 M12 16 Q9 13 6 12 M11 17 Q8 14 5 13" 
        stroke="#1a252f" 
        stroke-width="0.5" 
        opacity="0.8"/>
  
  <!-- Left wing secondary feathers (middle layer) -->
  <path d="M13.5 14.5 Q11.5 12 9 11.5 M12.5 15.5 Q10.5 13 8 12.5 M11.5 16.5 Q9.5 14 7 13.5" 
        stroke="#1a252f" 
        stroke-width="0.4" 
        opacity="0.6"/>
  
  <!-- Left wing tertiary feathers (inner layer) -->
  <path d="M13 15 Q12 13 10.5 12.5 M12 16 Q11 14 9.5 13.5" 
        stroke="#1a252f" 
        stroke-width="0.3" 
        opacity="0.4"/>
  
  <!-- Detailed right wing with intricate feather work -->
  <path d="M17 15 Q22 10 26 8 Q28 7 29 10 Q27 12 24 14 Q20 16 17 15 Z" 
        fill="url(#griffinGradientHeader)" 
        stroke="#1a252f" 
        stroke-width="0.6"/>
  
  <!-- Right wing primary feathers (outer layer) -->
  <path d="M18 14 Q21 11 24 10 M19 15 Q22 12 25 11 M20 16 Q23 13 26 12 M21 17 Q24 14 27 13" 
        stroke="#1a252f" 
        stroke-width="0.5" 
        opacity="0.8"/>
  
  <!-- Right wing secondary feathers (middle layer) -->
  <path d="M18.5 14.5 Q20.5 12 23 11.5 M19.5 15.5 Q21.5 13 24 12.5 M20.5 16.5 Q22.5 14 25 13.5" 
        stroke="#1a252f" 
        stroke-width="0.4" 
        opacity="0.6"/>
  
  <!-- Right wing tertiary feathers (inner layer) -->
  <path d="M19 15 Q20 13 21.5 12.5 M20 16 Q21 14 22.5 13.5" 
        stroke="#1a252f" 
        stroke-width="0.3" 
        opacity="0.4"/>
  
  <!-- Front legs with detailed eagle talons -->
  <path d="M14 20 Q13 22 12 26 Q11 28 10 30" 
        stroke="#1a252f" 
        stroke-width="1.2" 
        stroke-linecap="round" 
        fill="none"/>
  
  <path d="M16 20 Q15 22 14 26 Q13 28 12 30" 
        stroke="#1a252f" 
        stroke-width="1.2" 
        stroke-linecap="round" 
        fill="none"/>
  
  <!-- Detailed front talons with individual curved claws -->
  <path d="M10 30 Q9 31 8 30 M10 30 Q9 32 10 32 M10 30 Q9.5 33 10.5 33 M12 30 Q11 31 10 30 M12 30 Q11 32 12 32 M12 30 Q11.5 33 12.5 33" 
        stroke="#1a252f" 
        stroke-width="0.8" 
        stroke-linecap="round"/>
  
  <!-- Back legs with lion-like paws -->
  <path d="M18 24 Q17 26 16 28 Q15 29 14 31" 
        stroke="#1a252f" 
        stroke-width="1.2" 
        stroke-linecap="round" 
        fill="none"/>
  
  <path d="M20 24 Q19 26 18 28 Q17 29 16 31" 
        stroke="#1a252f" 
        stroke-width="1.2" 
        stroke-linecap="round" 
        fill="none"/>
  
  <!-- Back paw details -->
  <path d="M14 31 Q13 32 12 31 M14 31 Q13 33 14 33 M16 31 Q15 32 14 31 M16 31 Q15 33 16 33" 
        stroke="#1a252f" 
        stroke-width="0.8" 
        stroke-linecap="round"/>
  
  <!-- Flowing curved tail with detailed fur texture -->
  <path d="M20 26 Q22 24 24 26 Q26 28 25 30 Q24 32 22 31 Q21 29 20 27" 
        fill="none" 
        stroke="#1a252f" 
        stroke-width="1.2" 
        stroke-linecap="round"/>
  
  <!-- Tail continuation and S-curve -->
  <path d="M24 30 Q26 31 27 32 Q28 33 27 34 Q26 35 25 34 Q24 33 23 32" 
        fill="none" 
        stroke="#1a252f" 
        stroke-width="1" 
        stroke-linecap="round"/>
  
  <!-- Tail fur texture lines -->
  <path d="M22 28 Q23 27 24 28 M23 30 Q24 29 25 30 M24 32 Q25 31 26 32 M25 34 Q26 33 27 34" 
        stroke="#1a252f" 
        stroke-width="0.4" 
        opacity="0.5"/>
  
  <!-- Tail tuft detail -->
  <path d="M27 34 Q28 35 29 34 Q30 33 29 32 Q28 31 27 32" 
        fill="none" 
        stroke="#1a252f" 
        stroke-width="0.8" 
        stroke-linecap="round"/>
  
  <!-- Additional fur details on body -->
  <path d="M15 21 Q16 20.5 17 21 M14.5 23 Q15.5 22.5 16.5 23 M15.5 25 Q16.5 24.5 17.5 25" 
        stroke="#1a252f" 
        stroke-width="0.3" 
        opacity="0.4"/>
  
</svg>