<svg xmlns="http://www.w3.org/2000/svg" viewBox="0 0 40 40" width="40" height="40">
  <defs>
    <linearGradient id="goldLogo" x1="0%" y1="0%" x2="100%" y2="100%">
      <stop offset="0%" style="stop-color:#ffd700;stop-opacity:1" />
      <stop offset="50%" style="stop-color:#ffed4e;stop-opacity:1" />
      <stop offset="100%" style="stop-color:#daa520;stop-opacity:1" />
    </linearGradient>
    <linearGradient id="greenLogo" x1="0%" y1="0%" x2="100%" y2="100%">
      <stop offset="0%" style="stop-color:#27ae60;stop-opacity:1" />
      <stop offset="100%" style="stop-color:#228b22;stop-opacity:1" />
    </linearGradient>
    <filter id="shadowLogo">
      <feDropShadow dx="1" dy="1" stdDeviation="2" flood-opacity="0.3"/>
    </filter>
  </defs>
  
  <!-- Shield shape -->
  <path d="M20 3 L35 7 L35 22 C35 27 30 35 20 37 C10 35 5 27 5 22 L5 7 Z" 
        fill="#2c3e50" stroke="#1a252f" stroke-width="1" filter="url(#shadowLogo)"/>
  
  <!-- Clipping path for stripes -->
  <defs>
    <clipPath id="shieldLogo">
      <path d="M20 3.5 L34.5 7.2 L34.5 22 C34.5 26.5 30 34.5 20 36.5 C10 34.5 5.5 26.5 5.5 22 L5.5 7.2 Z"/>
    </clipPath>
  </defs>
  
  <g clip-path="url(#shieldLogo)">
    <!-- White stripes -->
    <rect x="5" y="7" width="30" height="4" fill="#ffffff"/>
    <rect x="5" y="15" width="30" height="4" fill="#ffffff"/>
    <rect x="5" y="23" width="30" height="4" fill="#ffffff"/>
    <rect x="5" y="31" width="30" height="4" fill="#ffffff"/>
    
    <!-- Green stripes -->
    <rect x="5" y="11" width="30" height="4" fill="url(#greenLogo)"/>
    <rect x="5" y="19" width="30" height="4" fill="url(#greenLogo)"/>
    <rect x="5" y="27" width="30" height="4" fill="url(#greenLogo)"/>
    
    <!-- Griffin/Lion rampant -->
    <g fill="url(#goldLogo)" stroke="#b8860b" stroke-width="0.5">
      <!-- Body -->
      <ellipse cx="20" cy="25" rx="4.5" ry="7"/>
      
      <!-- Head -->
      <circle cx="20" cy="15" r="3"/>
      
      <!-- Wings -->
      <path d="M24 15 Q28 13 29 17 Q28 20 24 19 Z"/>
      <path d="M24 19 Q26 21 25 24 Q23 23 24 21 Z"/>
      
      <!-- Front paws -->
      <ellipse cx="17" cy="20" rx="1.2" ry="2.5"/>
      <ellipse cx="23" cy="20" rx="1.2" ry="2.5"/>
      
      <!-- Rear paws -->
      <ellipse cx="17" cy="30" rx="1.2" ry="2.5"/>
      <ellipse cx="23" cy="30" rx="1.2" ry="2.5"/>
      
      <!-- Tail -->
      <path d="M15 27 Q11 25 12 29 Q14 30 15 27"/>
      
      <!-- Eye -->
      <circle cx="19" cy="14" r="0.6" fill="#1a252f"/>
    </g>
  </g>
</svg>