<svg xmlns="http://www.w3.org/2000/svg" viewBox="0 0 40 40" width="40" height="40">
  <defs>
    <linearGradient id="knightGradientHeader" x1="0%" y1="0%" x2="100%" y2="100%">
      <stop offset="0%" style="stop-color:#2c3e50;stop-opacity:1" />
      <stop offset="50%" style="stop-color:#34495e;stop-opacity:1" />
      <stop offset="100%" style="stop-color:#2c3e50;stop-opacity:1" />
    </linearGradient>
    <linearGradient id="baseHeader" x1="0%" y1="0%" x2="100%" y2="100%">
      <stop offset="0%" style="stop-color:#1a252f;stop-opacity:1" />
      <stop offset="100%" style="stop-color:#2c3e50;stop-opacity:1" />
    </linearGradient>
  </defs>
  
  <!-- Background circle for header -->
  <circle cx="20" cy="20" r="19" fill="#f8f9fa" stroke="#34495e" stroke-width="1"/>
  
  <!-- Base/Platform -->
  <ellipse cx="20" cy="34" rx="14" ry="3" fill="url(#baseHeader)" />
  
  <!-- Knight body/head -->
  <path d="M10 32 L10 22 Q10 18 12 16 Q14 14 16 15 L17 14 Q18 12 20 13 Q22 12 24 14 L25 16 Q26 18 25 20 L26 22 Q26 24 24 26 L22 28 Q20 30 20 30 L16 30 Q14 30 10 32 Z" 
        fill="url(#knightGradientHeader)" 
        stroke="#1a252f" 
        stroke-width="1"/>
  
  <!-- Knight mane -->
  <path d="M17 15 Q19 13 21 15 Q23 14 24 17 Q23 19 21 18 Q19 17 17 18 Q16 16 17 15 Z" 
        fill="#34495e" 
        stroke="#1a252f" 
        stroke-width="0.5"/>
  
  <!-- Knight ear -->
  <path d="M20 13 Q21 12 22 13 Q21 14 20 14 Z" 
        fill="#2c3e50"/>
  
  <!-- Eye -->
  <circle cx="21" cy="17" r="1.8" fill="#ffffff" opacity="0.9"/>
  <circle cx="21.4" cy="16.6" r="1" fill="#1a252f"/>
  
  <!-- Nostril -->
  <circle cx="24" cy="20" r="1" fill="#1a252f" opacity="0.6"/>
  
  <!-- Highlight on head -->
  <path d="M18 16 Q20 15 22 16 Q21 17 19 17 Q18 16.5 18 16 Z" 
        fill="#ffffff" 
        opacity="0.3"/>
  
</svg>